<svg width="10" height="10" viewBox="0 0 10 10" fill="none" xmlns="http://www.w3.org/2000/svg">
<path d="M3.00001 4.49996C3.00001 4.36735 3.05268 4.24017 3.14645 4.1464C3.24022 4.05263 3.3674 3.99996 3.50001 3.99996H6.50001C6.63261 3.99996 6.75979 4.05263 6.85356 4.1464C6.94733 4.24017 7.00001 4.36735 7.00001 4.49996C7.00001 4.63256 6.94733 4.75974 6.85356 4.85351C6.75979 4.94728 6.63261 4.99996 6.50001 4.99996H3.50001C3.3674 4.99996 3.24022 4.94728 3.14645 4.85351C3.05268 4.75974 3.00001 4.63256 3.00001 4.49996ZM3.50001 5.99996C3.3674 5.99996 3.24022 6.05263 3.14645 6.1464C3.05268 6.24017 3.00001 6.36735 3.00001 6.49996C3.00001 6.63256 3.05268 6.75974 3.14645 6.85351C3.24022 6.94728 3.3674 6.99996 3.50001 6.99996H5.50001C5.63261 6.99996 5.75979 6.94728 5.85356 6.85351C5.94733 6.75974 6.00001 6.63256 6.00001 6.49996C6.00001 6.36735 5.94733 6.24017 5.85356 6.1464C5.75979 6.05263 5.63261 5.99996 5.50001 5.99996H3.50001ZM5.62608e-06 4.99996C0.000256403 3.90376 0.360747 2.83802 1.026 1.96675C1.69125 1.09549 2.62439 0.466996 3.68181 0.177994C4.73922 -0.111008 5.86232 -0.0444996 6.87823 0.367283C7.89415 0.779067 8.74659 1.5133 9.30436 2.45699C9.86214 3.40068 10.0943 4.50152 9.96519 5.59009C9.83606 6.67865 9.35278 7.69462 8.5897 8.48163C7.82663 9.26863 6.82607 9.78306 5.74201 9.94574C4.65795 10.1084 3.55046 9.91032 2.59001 9.38196L0.646006 9.97396C0.559296 10.0004 0.467038 10.0027 0.379099 9.98074C0.291159 9.95877 0.210847 9.9133 0.146753 9.84921C0.082659 9.78511 0.0371936 9.7048 0.0152203 9.61686C-0.00675297 9.52892 -0.00440761 9.43667 0.0220056 9.34996L0.614006 7.40296C0.20996 6.66655 -0.00125681 5.83992 5.62608e-06 4.99996ZM5.00001 0.999956C4.28994 0.999897 3.59266 1.18885 2.97978 1.54741C2.3669 1.90597 1.86052 2.42122 1.51263 3.04022C1.16475 3.65922 0.98791 4.35967 1.00028 5.06963C1.01264 5.77958 1.21377 6.47345 1.58301 7.07996C1.61966 7.14021 1.64315 7.20753 1.65194 7.2775C1.66073 7.34747 1.65462 7.41851 1.63401 7.48596L1.25101 8.74496L2.50801 8.36196C2.57566 8.34134 2.64693 8.33532 2.71709 8.34429C2.78724 8.35325 2.8547 8.37699 2.91501 8.41396C3.44218 8.73582 4.03674 8.93122 4.65207 8.98485C5.26741 9.03848 5.8868 8.94888 6.46172 8.72307C7.03663 8.49726 7.55143 8.14138 7.96579 7.68331C8.38014 7.22525 8.68279 6.67745 8.85001 6.08285C9.01722 5.48825 9.04447 4.863 8.9296 4.2561C8.81474 3.64921 8.56089 3.07716 8.18795 2.58479C7.81501 2.09243 7.33311 1.69311 6.78002 1.41815C6.22693 1.14319 5.61767 1.00005 5.00001 0.999956Z" fill="black"/>
</svg>
